<svg xmlns="http://www.w3.org/2000/svg" width="48.749" height="48.749" viewBox="0 0 48.749 48.749"><path d="M11.582 33.588l-2.321-1.054-.65.343-.602.016.045-.627-.576-.343-.819.819.549.675 1.187.171.667.35.018.326h-.433l.018.666 1.44-.092.524-.557.558-.054v1.026h.972v-.415h-.487zM18.67 12.211l.09-.566-.585-.09c0 .035.045.656.09.656h.405zM35.474 13.945l-.127.332h-.623v.318h.148l.021.158.381-.031.236-.148.062-.297.308-.027.12-.251-.28-.059-.246.005zM33.873 14.528l-.024.314.451-.038.047-.315-.272-.212z"/><path d="M24.374 0C15.688 0 8.055 4.57 3.737 11.429A24.226 24.226 0 0 0 .001 24.375c0 .734.038 1.461.103 2.18a24.31 24.31 0 0 0 1.612 6.783 24.307 24.307 0 0 0 2.096 4.099 24.576 24.576 0 0 0 7.617 7.578c.27.168.542.332.818.491a24.214 24.214 0 0 0 12.128 3.244c13.438 0 24.373-10.935 24.373-24.373C48.747 10.935 37.813 0 24.374 0zm10.533 44.107l-.539-.455.055-.396.17-.484.036-.496-.642-.018-.321-.406.531-.514.071-.387-.594-.17.034-.359.847-.129 1.289-.618.432-.793 1.351-1.728-.308-1.353.416-.721 1.24.037.838-.66.271-2.606.927-1.18.162-.757-.846-.271-.559-.918-1.908-.018-1.512-.576-.072-1.08-.506-.883-1.367-.02-.791-1.24-.702-.342-.036.38-1.277.075-.469-.651-1.332-.271-1.099 1.27-1.729-.293-.126-1.948-1.26-.216.505-.954-.146-.55-1.656 1.107-1.043-.127-.372-.814.228-.84.575-1.06 1.323-.67 2.556-.001-.008.779.919.428-.073-1.33.662-.666 1.336-.877.092-.617 1.332-1.387 1.416-.784-.125-.103.959-.903.353.093.161.203.363-.404.09-.039-.399-.057-.403-.134v-.391l.215-.176h.474l.217.095.188.378.229-.035v-.032l.064.022.664-.104.096-.324.377.095v.352l-.352.243h.002l.051.385 1.203.371a.1.1 0 0 0 .004.014l.275-.023.02-.521L37 13.12l-.054-.251.791-.271.035-.756-.826-.504-.055-1.277-1.135.558h-.416l.109-.973-1.544-.364-.641.482v1.472l-1.147.364-.46.959-.498.08V11.41l-1.079-.148-.54-.352-.217-.796 1.931-1.13.945-.287.094.634.526-.027.041-.319.551-.078.01-.112-.236-.097-.055-.338.678-.057.408-.426.022-.031.005.002.125-.128 1.423-.18.629.534-1.649.879 2.1.494.271-.701h.918l.324-.613-.648-.161v-.774l-2.033-.9-1.405.162-.793.414.055 1.009-.828-.126-.127-.559.793-.72-1.439-.072-.414.126-.18.486.539.09-.107.541-.918.053-.145.36-1.332.036s-.035-.756-.09-.756l1.043-.018.793-.775-.434-.215-.574.559-.955-.055-.576-.792h-1.225L26.106 7h1.17l.107.342-.305.288 1.296.036.197.467-1.459-.053-.071-.36-.917-.198-.487-.27-2.159.018-.667.648-.45-.036-.503-.288-1.495-.45h-2.736l-1.584 1.079-1.062.164-.487.377.756.113v.301h-1.619L13 9.627l.81.686 2.215.018.307-.324h1.854l.666.594-.035.919.558.522-.468.332.107 1.215-1.674 2.035v1.908l.9.432v1.714l.864 1.474.701.107.09-.504-.827-1.279-.162-1.241h.486l.205 1.278 1.197 1.746-.31.564.761 1.164 1.891.468v-.307l.756.108-.072.539.595.109.918.251 1.296 1.478 1.656.125.161 1.35-1.133.792-.056 1.207-.161.736 1.639 2.055.125.702s.596.16.666.16c.072 0 1.334.955 1.334.955v3.709l.449.127-.308 1.709.757 1.008-.14 1.696.999 1.757 1.111.971a22.252 22.252 0 0 1-9.354 2.058c-3.659 0-7.112-.89-10.164-2.452l.59-.387.718-.318.722-.408-.267-.475-.391.077-.011-.881-.717.043-.091 1.379-.63.43-.738.103a22.006 22.006 0 0 1-2.399-1.561l.82-.771.63-1.438-.261-1.062-.97-.831-.073-1.585-.641-1.098-.575-.025-.234 1.988-1.101-.082-.307-.186-.037-.79.582.119.491-.479-1.045-.629H7.046l-.882 1.252h-.36v-.396l-.337.024a22.12 22.12 0 0 1-.707-1.188c-.05-.09-.097-.18-.146-.271l-.124-.242.094.029.08-.283H4.36a21.913 21.913 0 0 1-.227-.461l.309-.027-.014-1.754-.907.353a22.173 22.173 0 0 1-1.505-7.451l.15-.056.828-.691-.126-1.252-.763-.8c.064-.669.161-1.327.283-1.978l1.803 1.375.639-.172-.423-.558-1.215-.738.072-1.097 1.439.001.117-1.36-.549-.723.324-.351.702.703.225-.298-.9-1.026-.945-.114c.167-.407.343-.811.533-1.205l.574.051 1.945-1.297.323.406-.433.675v.675l1.782 1.457.568-.296-.217-.972-1.268-1.188 1.673-.108v-.486l.811-.162-.621-.428.026-.328 1.701.275.324-.275-2.296-.972-3.048-.157C10.109 5.781 16.807 2 24.374 2c12.337 0 22.373 10.037 22.373 22.375 0 8.53-4.8 15.959-11.84 19.732z"/></svg>