<svg xmlns="http://www.w3.org/2000/svg" width="48.748" height="48.748" viewBox="0 0 48.748 48.748"><path d="M32.729 33.495l-1.332.037-.054-.72.217.088.521-.05-.055-.666-1.439.016-.397-.522.022-.273-1.856-1.673-.451.361 2.646 3.24.378.127v.181h-.504l.126.397 3.259.144zM34.257 32.875l.202-.514.358-.324v-.236l.223-.147v-1.778l-.223-.093-.107-.554h-.324l-.21.561-.249.224-1.885 1.02v1.01l.629.831zM35.04 32.238v1.315h.486l-.072-.839.379.136v.593l.395-.035-.013-1.754-.952.369.011.215zM40.183 33.127l.666.352.017.323h-.431l.016.666 1.441-.09.523-.56.557-.052v1.026h.972v-.414h-.486l-.09-1.251-2.321-1.054-.65.343-.603.016.046-.627-.575-.343-.821.818.55.676zM23.115 29.427l.226.611.818-.306.09-.843-.659-.132zM13.502 36.557l-1.116-.144v.862l.396.47-.305.467-.451.522v.954l.614.595.556-.896 1.098-1.607.523-2.52h-.667zM36.087 34.092l.283.09.08-.286h-.363zM34.386 34.182h.432v.239h-.432zM35.296 34.182l-.256.239v.209l.398-.041v-.168h.27v-.211l.195-.028v-.205h-.431zM36.126 34.421v.378h.42v-.19h.432v-.22l.302.032-.039-.383-.494.071-.043.25-.551.062z"/><path d="M24.374 0C10.935 0 .001 10.935.001 24.374c0 13.438 10.934 24.374 24.373 24.374 13.439 0 24.373-10.936 24.373-24.374C48.747 10.935 37.813 0 24.374 0zm0 2c7.846 0 14.755 4.062 18.75 10.189l-2.23-.944-8.371-.432-.782-.396-1.244-.185-.935-.032-.848.856-.357-.028-1.127-.836h-3.32l-1.541-.919-3.084.195-2.344 1.048.019 1.215-.722.216-.162-1.216-.268-.422-.812-.199-.188.729.242.594-2.88-.188-1.375.639-.208-.603-.343.09-.251.665-.721.563-1.757-.05-.079-.387 1.836-.081.377-.323-2.213-1.027-.797.024C10.733 5.437 17.158 2 24.374 2zM12.791 18.616l-.035-.836.181-.414.728-.063.621.26.028.432-.883-.049-.045.4 1.107.738v.54l.478.352v.378l-.244.234-.567-.047-.109-.17-.891-.063.063-.289.47-.406v-.339l-.902-.658zm-5.247 3.781l-1.053-.783-1.107.107v.676h-.352l-.377-.27-1.918-.486v-1.242l-.381.029c.104-.586.228-1.165.377-1.734l1.506 1.017-.207.277-.762-.041.294.415.468.104.551-.229-.01-.662.244-.123-.197-.207-1.127-.629-.297-.836h.938l.299.297.809.695.034.842.837.893.311-1.223.58-.316.109 1 .566.621 1.709-.029.505.38v.892l-.62.566-1.729-.001zm-3.188-7.802l.001-.198c.267-.532.55-1.055.856-1.562v.415l.609.284.039.58-.857 1.275-1.11-.01c.106-.24.212-.48.326-.717l.136-.067zm1.587-2.865h.344v.433l-1.059.646c.218-.36.448-.713.686-1.059l.029-.02zm3.647 7.939l-1.401-.057-.419.057v-.956l.313-.353.34-.105.743-.086.163-.255.304.151.043.871.813.335.072.397-.971.001zm-.824 20.713l.218-.225.576-1.026.738-.163v-.864l.486-.576 1.026-1.403-.216-2.14-.451-.795 2.022-1.93 2.227-3.184-.433-.199-2.313.488-.595-.297L9.62 23.49l.172-.199 2.408 2.926.059.905.558.56 1.134-.074 2.367-1.715.742-.483-.014-.595-.79-.104s-2.772-1.307-2.772-1.365l.017-1.121h.612l.09.774 1.286.739 1.468.071 3.188.521.746.471v.729l-.096.991 1.633 2.687.527.122.525-.764.291-2.174.544-1.17.877-.328 1.55.148 1.942 1.729v2.484l2.566 2.455.135-.43-2.08-2.971.217-.865 1.101 1.246.61.063.808-.536-.133-.81-1.332-1.071-.056-.973.381-.514.675.217-.056.459.388.595.342-.243-.188-.702 1.89-.676.829-.692-.127-1.251-1.646-1.729-.026-1.404h.729l2.268 1.729.641-.172-.424-.557-1.215-.738.072-1.098 1.439.002.117-1.359-.549-.724.323-.351.701.703.226-.298-.899-1.026-2.241-.27-.297-.594.648-.918.513.377 1.538.136 1.945-1.296.323.404-.434.676v.676l1.782 1.457.568-.297-.217-.973-1.266-1.185 1.672-.108v-.486l.811-.161-.621-.428.027-.329 1.701.274.294-.248a22.229 22.229 0 0 1 3.589 12.131 22.22 22.22 0 0 1-3.788 12.44l-.03-.666-.641-1.096-.575-.027-.235 1.988-1.1-.082-.307-.185-.039-.788.583.118.491-.479-1.045-.629h-1.229l-.883 1.254h-.36v-.396l-1.058.08-1.675 1.906-.887.013-.99.684-.071 2.952-.595.576v.521l2.879-.99 2.336-.094.334.733a22.251 22.251 0 0 1-13.489 4.538c-6.065.005-11.572-2.427-15.606-6.361z"/></svg>