<svg xmlns="http://www.w3.org/2000/svg" width="48.625" height="48.625" viewBox="0 0 48.625 48.625"><path d="M23.801 30.346l-1.371.036-.055-.741.222.093.536-.054-.055-.686-1.481.018-.408-.535.022-.282-1.908-1.718-.464.369 2.721 3.332.388.131v.184h-.518l.13.409 3.35.147zM25.371 29.707l.208-.527.368-.334v-.244l.229-.15v-1.829l-.229-.096-.111-.57h-.334l-.214.578-.257.229-1.937 1.05v1.038l.646.855zM26.176 29.051v1.351h.5l-.074-.861.39.141v.61l.404-.037-.012-1.803-.98.38.014.219zM34.288 33.074l-.658-1.127-.592-.028-.241 2.045-1.131-.084-.316-.191-.039-.811.599.122.504-.493-1.075-.646h-1.263l-.908 1.287h-.37v-.405l-1.087.082-1.721 1.962-.913.011-1.018.703-.075 3.035-.61.593v.537l2.962-1.018 2.4-.095.89 1.954 2.728.095 2.626-2.472.649-1.478-.27-1.093-.996-.854zM29.982 42.012l.965.105.78-.429.014-.586-.85-.094zM33.907 42.229v.457l1.007-.155 2.443-1.498.692-.454.738-.327.742-.42-.273-.488-.402.08-.012-.906-.737.044-.093 1.417-.649.443-1.202.167-1.927 1.37zM31.686 29.234l-.622.017.047-.646-.591-.352-.842.843.565.694 1.22.176.685.36.019.334h-.444l.018.686 1.482-.095.537-.573.573-.055v1.055h1v-.427h-.5l-.093-1.285-2.386-1.083zM13.914 26.161l.231.629.843-.313.093-.872-.679-.132zM27.252 30.958l.291.091.083-.292h-.374zM25.502 31.049h.445v.247h-.445zM26.439 31.049l-.263.247v.216l.41-.043v-.173h.277v-.216l.201-.031v-.212h-.444zM27.293 31.296v.39h.432v-.196h.443v-.228l.312.034-.041-.394-.507.077-.043.255-.567.062z"/><path d="M24.312 0C17.826 0 11.93 2.559 7.566 6.713l-.002.001v.001A24.255 24.255 0 0 0 .38 20.054c-.028.161-.061.321-.086.483A24.352 24.352 0 0 0 0 24.312c0 3.301.664 6.45 1.861 9.323 3.664 8.791 12.346 14.99 22.451 14.99 13.406 0 24.313-10.906 24.313-24.313C48.625 10.906 37.718 0 24.312 0zM4.604 13.865l.229.096.028.445-.52-.029c.087-.172.173-.343.263-.512zm-.863 2.623l.483-.417v-.351l-.38-.278c.081-.186.164-.369.25-.552l.954.636v.555l.492.361v.389l-.251.24-.583-.047-.112-.175-.917-.065.064-.296zm20.571 30.137c-10.644 0-19.565-7.494-21.78-17.48l1.15-1.098 2.289-3.273-.444-.205-2.378.5-.612-.304-.524-.988c.013-.547.041-1.09.093-1.627l.585.711.061.931.573.575 1.166-.075 2.435-1.763.763-.5-.014-.611-.813-.105s-2.851-1.344-2.851-1.403l.018-1.153h.629l.093.797 1.321.759 1.51.074 3.277.536.767.482v.75l-.098 1.02 1.679 2.764.542.125.541-.785.298-2.235.56-1.204.903-.336 1.593.152 1.998 1.776v2.554l2.638 2.527.139-.443-2.138-3.055.222-.89 1.13 1.28.63.066.829-.552-.138-.833-1.369-1.102-.055-1 .39-.527.694.222-.056.472.396.61.353-.25-.193-.722 1.942-.695.852-.711-.129-1.288-1.693-1.776-.028-1.444h.75l2.333 1.777.656-.176-.436-.574-1.25-.758.074-1.129 1.48.002.121-1.398-.564-.744.334-.36.721.723.23-.306-.925-1.056-2.304-.277-.306-.611.666-.944.528.388 1.582.139 2-1.333.333.417-.445.694v.694l1.832 1.499.584-.305-.223-1-1.305-1.221 1.722-.112v-.5l.833-.167-.639-.44.026-.338 1.75.283.333-.283-2.358-.999-8.608-.444-.805-.407-1.278-.19-.961-.032-.871.88-.368-.028-1.16-.86h-3.414l-1.584-.945-.787.05A22.212 22.212 0 0 1 24.312 2c12.303 0 22.313 10.009 22.313 22.313 0 12.304-10.01 22.312-22.313 22.312z"/></svg>