<svg xmlns="http://www.w3.org/2000/svg" viewBox="0 0 510.61 478.52"><title>best-price</title><g id="aac7922d-9560-4abb-ae89-4dd8ec5851d9" data-name="Слой 2"><g id="2ca1e12a-39a4-4be8-be2b-a8c8c9a0c5f8" data-name="Layer 1"><circle cx="324.98" cy="121.6" r="121.6" fill="#ffd15c"/><circle cx="324.98" cy="121.6" r="100.27" fill="#f8b64c"/><path d="M487.12,317.87s-51.2,40.53-80,53.33c0,0-62.93,34.13-122.67,36.27h-92.8s-17.07-3.2-39.47,11.73c-3.2,2.13-5.33,4.27-8.53,6.4a75.79,75.79,0,0,0-13.87,12.8L55.12,329.6A160.79,160.79,0,0,0,70,317.87c2.13-2.13,5.33-4.27,7.47-7.47,6.4-5.33,12.8-12.8,19.2-20.27,0,0,39.47-51.2,128-20.27,61.87,21.33,69.33,22.4,69.33,22.4s37.33,4.27,73.6,4.27c0,0,29.87,0,28.8,22.4,0,7.47-4.27,13.87-9.6,19.2-7.47,6.4-21.33,13.87-46.93,16a171.2,171.2,0,0,1-33.07,0c-27.73-2.13-60.8-7.47-67.2-3.2,0,0-8.53,6.4,24.53,10.67,0,0,24.53,3.2,68.27,4.27,0,0,78.93-3.2,75.73-58.67,0,0,27.73-17.07,43.73-23.47,0,0,44.8-26.67,55.47-9.6C508.45,275.2,521.25,293.33,487.12,317.87Z" fill="#ffd15c"/><path d="M319.65,173.87c-16-1.07-27.73-7.47-36.27-16l11.73-17.07a36.7,36.7,0,0,0,24.53,12.8V130.13c-16-4.27-33.07-9.6-33.07-30.93,0-16,11.73-28.8,33.07-30.93V54.4h14.93V69.33A49.14,49.14,0,0,1,365.52,83.2l-11.73,16a36.55,36.55,0,0,0-19.2-9.6v21.33c16,4.27,34.13,9.6,34.13,30.93,0,17.07-10.67,29.87-34.13,32v13.87H319.65Zm0-67.2V88.53C313.25,89.6,309,92.8,309,98.13,309,102.4,313.25,105.6,319.65,106.67Zm13.87,27.73v20.27c7.47-1.07,11.73-6.4,11.73-10.67C345.25,138.67,341,136.53,333.52,134.4Z" fill="#fff"/><path d="M384.72,312.53c-3.2-3.2-11.73-5.33-16-5.33H351.65v35.2a85.66,85.66,0,0,0,28.8-11.73,25.43,25.43,0,0,0,6.4-11.73C385.78,315.73,384.72,313.6,384.72,312.53Z" fill="#fff"/><path d="M152.18,419.2c-3.2,2.13-5.33,4.27-8.53,6.4a75.79,75.79,0,0,0-13.87,12.8L55.12,329.6A160.79,160.79,0,0,0,70,317.87c2.13-2.13,5.33-4.27,7.47-7.47Z" fill="#f8b64c"/><rect x="43.35" y="300.94" width="67.19" height="173.85" transform="translate(-206.3 111.94) rotate(-34.53)" fill="#40596b"/><circle cx="111.65" cy="435.2" r="14.93" fill="#ff7058"/></g></g></svg>