<svg xmlns="http://www.w3.org/2000/svg" viewBox="0 0 421.966 421.966"><path d="M376.612 304.226l-53.746-53.745c51.133-54.141 50.206-139.783-2.789-192.777-26.131-26.131-60.873-40.521-97.827-40.521-35.616 0-69.173 13.371-94.95 37.732l-25.297-25.296L73.557 1.172A4 4 0 1 0 67.9 6.828L93.552 32.48c-31.863 33.289-49.367 76.825-49.369 123.052-.003 47.563 18.519 92.28 52.153 125.914 33.701 33.701 77.655 51.039 121.915 52.02v31.148h-64.189c-22.056 0-40 17.944-40 40v13.353a4 4 0 0 0 4 4h208.377a4 4 0 0 0 4-4v-13.353c0-22.056-17.944-40-40-40h-64.188v-31.148c43.013-.961 85.745-17.375 119.051-49.236l25.653 25.653a3.989 3.989 0 0 0 2.829 1.172 4.001 4.001 0 0 0 2.828-6.829zm-54.173 109.74H122.062v-9.353c0-2.139.215-4.227.617-6.25h199.143c.402 2.023.617 4.111.617 6.25v9.353zm-3.36-23.602H125.421c5.251-10.511 16.113-17.75 28.64-17.75h136.377c12.528 0 23.39 7.239 28.641 17.75zM91.902 155.531c0-20.824 4.855-40.901 14.021-58.945-1.512 11.024-.932 23.146 1.835 36.019 2.219 10.328 5.761 20.733 10.49 30.989l-22.705 22.705a131.247 131.247 0 0 1-3.641-30.768zm42.253-93.352c9.81 0 29.855 10.162 55.6 29.907l-30.91 30.91c-5.812-7.583-10.981-14.906-15.368-21.811-6.497-10.224-11.055-19.259-13.183-26.129-1.79-5.78-1.869-10.043-.215-11.697.785-.782 2.156-1.18 4.076-1.18zM314.42 247.701c-.784.783-2.155 1.181-4.075 1.181-9.966 0-30.502-10.498-56.839-30.867l31.188-31.188c6.2 8.024 11.704 15.771 16.329 23.05 6.497 10.224 11.055 19.259 13.183 26.128 1.79 5.779 1.868 10.042.214 11.696zm-67.241-34.674c-12.646-10.185-26.471-22.508-40.988-36.88l36.675-36.675c13.644 13.788 26.139 27.719 36.842 41.027l-32.529 32.528zm-46.638-42.543c-13.636-13.851-26.09-27.823-36.724-41.145l32.28-32.28c12.66 10.118 26.521 22.392 41.107 36.761l-36.663 36.664zm-78.775-96.347c1.879 8.139 6.867 18.604 14.959 31.339 4.667 7.345 10.2 15.147 16.421 23.22l-28.851 28.851c-13.699-31.129-15.197-61.88-2.529-83.41zm36.36 60.892c10.701 13.349 23.16 27.301 36.758 41.11l-34.529 34.529c-13.669-14.313-24.564-29.829-32.432-45.437l30.203-30.202zm42.408 46.775c13.911 13.766 27.829 26.22 41.016 36.853l-30.467 30.467c-15.721-8.122-31.105-19.218-45.091-32.777l34.542-34.543zm47.33 41.852c22.493 17.449 42.394 29.126 55.786 32.327-9.703 5.693-21.508 8.668-34.826 8.668-16.02 0-33.167-4.154-50.126-11.829l29.166-29.166zm74.871 13.271c-1.879-8.14-6.867-18.605-14.96-31.342-4.905-7.72-10.768-15.945-17.382-24.458l29.132-29.132c4.21 9.335 7.383 18.778 9.395 28.144 4.787 22.263 2.565 41.918-6.185 56.788zm-37.337-62.119c-10.767-13.334-23.271-27.246-36.876-40.993l34.549-34.549c13.524 13.946 24.624 29.289 32.772 45.098l-30.445 30.444zm-2.35-86.833c-14.021-13.41-29.4-24.46-45.165-32.703l23.982-23.982c18.133 5.759 34.858 15.493 49.109 28.759l-27.926 27.926zm-5.659 5.659l-34.528 34.528c-13.973-13.756-27.931-26.171-41.131-36.737l30.232-30.233c15.808 7.973 31.308 18.958 45.427 32.442zm-81.994-7.187c-21.982-16.916-41.399-28.227-54.544-31.37 9.703-5.693 21.508-8.668 34.826-8.668 15.539 0 32.138 3.92 48.597 11.159l-28.879 28.879zm-73.416 84.729c8.266 15.832 19.335 31.165 32.718 45.151l-27.928 27.928c-13.266-14.252-23-30.977-28.759-49.11l23.969-23.969zm38.356 50.827c13.894 13.483 29.156 24.651 44.835 33.033l-24.201 24.201c-17.974-5.979-34.522-15.885-48.583-29.285l27.949-27.949zm52.361 36.821c18.886 8.953 38.143 13.827 56.128 13.827 4.311 0 8.478-.3 12.502-.861-18.077 9.21-38.2 14.089-59.075 14.089a131.17 131.17 0 0 1-32.533-4.077l22.978-22.978zm125.908-44.529c1.481-10.976.891-23.036-1.861-35.839-2.327-10.83-6.114-21.745-11.194-32.485l22.904-22.903c7.739 30.296 4.457 62.848-9.849 91.227zm7.285-99.977l-24.125 24.125c-8.406-15.744-19.579-30.97-33.037-44.833l27.943-27.943c13.623 14.304 23.358 30.97 29.219 48.651zm-92.87-85.495L230.302 51.54c-18.404-8.504-37.117-13.13-54.625-13.13-4.311 0-8.478.3-12.501.86 18.077-9.209 38.2-14.088 59.075-14.088 10.501 0 20.811 1.242 30.768 3.641zM101.993 275.79c-32.123-32.123-49.812-74.831-49.81-120.258.002-44.089 16.671-85.62 47.023-117.397l22.437 22.435c-24.367 25.779-37.742 59.34-37.742 94.96 0 36.954 14.391 71.696 40.521 97.826 26.131 26.131 60.873 40.523 97.828 40.523 35.619 0 69.181-13.376 94.959-37.742l22.438 22.437c-66.521 63.501-172.294 62.575-237.654-2.784z" /></svg>
