<svg xmlns="http://www.w3.org/2000/svg" width="48.625" height="48.625" viewBox="0 0 48.625 48.625"><path d="M36.667 28.913l.231.628.844-.312.092-.872-.678-.132zM26.782 36.245l-1.148-.149v.888l.408.482-.314.481-.464.537v.98l.631.612.574-.922 1.127-1.652.539-2.591h-.686zM12.288 14.372l.045.36-.537.111-.074.769h.649l.86-.083.444-.529-.472-.184-.258-.296-.389-.63-.185-.889-.732.148-.204.314v.353l.352.241z"/><path d="M11.666 14.667l.039-.48-.428-.186-.6.139-.444.713v.463h.517zM39.834 8.306l.037.035a.63.63 0 0 0-.037-.035z"/><path d="M24.312 0C10.906 0 0 10.906 0 24.312c0 13.407 10.906 24.313 24.312 24.313s24.313-10.906 24.313-24.313C48.625 10.906 37.718 0 24.312 0zm0 46.625C12.009 46.625 2 36.615 2 24.312 2 12.009 12.009 2 24.312 2c6.047 0 11.54 2.422 15.562 6.344.263.255.513.521.763.79h-3.152L35.9 8.189l-3.171.201-2.41 1.077.02 1.25-.742.222-.166-1.25-.277-.434-.836-.205-.193.75.25.61-2.963-.195-1.414.656-.214-.619-.352.092-.258.685-.741.579-1.806-.051-.082-.398 1.888-.083.389-.333-2.276-1.056-2.778.083-1.556.797-.583 1.042-1.027.403-.433.47.1.548.529.074.321.798.913-.368.152 1.068h-.277l-.751-.111-.832.139-.805 1.138-1.153.181-.166.986.486.116-.139.633-1.145-.229-1.05.229-.222.584.182 1.226.617.288 1.032-.006.698-.063.214-.555 1.09-1.417.716.147.708-.639.132.5 1.739 1.173-.212.286-.784-.042.303.428.481.106.566-.236-.011-.68.251-.126-.202-.214-1.159-.647-.306-.86h.965l.307.306.832.715.035.866.861.917.32-1.256.597-.325.111 1.027.583.639 1.758-.029.519.39v.917l-.638.583h-1.777l-1.083-.806-1.139.111v.695h-.364l-.388-.277-1.973-.5v-1.278l-2.5.195-.776.417h-.992l-.487-.049-1.206.669v1.259L7.288 23.9l.205.759h.5l-.13.722-.352.129-.018 1.889 2.127 2.424h.927l.055-.147h1.666l.48-.444h.945l.518.52 1.406.146-.185 1.871 1.564 2.758-.824 1.573.056.741.649.647v1.781l.85 1.145v1.48h2.519l1.888-1.942.592-1.056.758-.168v-.888l.5-.593 1.056-1.443-.222-2.201-.464-.816 2.08-1.984 2.289-3.273-.445-.204-2.377.5-.612-.306-2.499-4.708.176-.204 2.477 3.008.061.931.573.575 1.166-.075 2.436-1.763.762-.5-.014-.611-.812-.106s-2.852-1.344-2.852-1.403l.018-1.153h.63l.093.797 1.322.759 1.51.074 3.277.536.767.482v.75l-.099 1.021 1.68 2.762.542.125.541-.785.298-2.234.561-1.204.902-.336 1.594.152 1.998 1.776v2.555l2.638 2.525.139-.443-2.138-3.055.222-.889 1.13 1.281.631.066.828-.553-.138-.833-1.369-1.103-.055-1 .39-.527.694.222-.056.472.396.61.353-.25-.192-.722.754-.27.001.038c0 12.305-10.01 22.315-22.313 22.315zm1.739-28.83l-.035-.86.184-.425.749-.064.639.267.028.445-.907-.051-.047.413 1.139.759v.555l.492.361v.389l-.251.24-.583-.047-.111-.175-.918-.065.065-.296.483-.417v-.352l-.927-.677zm-2.293 1.084h-.999l-1.44-.059-.432.059v-.984l.323-.362.349-.108.765-.089.167-.261.313.156.044.896.836.344.074.408zm-4.873-6.311l.041.598-.881 1.312-1.528-.014-.096-.319.957-.485.007-1.813 1.625-1.132h.354v.444l-1.103.674v.444l.624.291z"/></svg>