<svg xmlns="http://www.w3.org/2000/svg" viewBox="-30 0 470.12 348.6"><title>guarantee</title><g id="97bcb0e0-68e1-4757-b575-32713e2ffb59" data-name="Слой 2"><g id="fde4555d-2bf8-481e-b14f-a7d8960b0ccd" data-name="Layer 1"><path d="M355.73,348.6H15.47A15.51,15.51,0,0,1,0,333.13V30.76A15.51,15.51,0,0,1,15.47,15.29H355.73A15.51,15.51,0,0,1,371.2,30.76V333.13A15.51,15.51,0,0,1,355.73,348.6Z" fill="#84dbff"/><path d="M344.13,103.45H27.07a7.31,7.31,0,0,0-7.73,7.73V321.53a7.31,7.31,0,0,0,7.73,7.73H290l61.87-61.87V111.19A7.75,7.75,0,0,0,344.13,103.45Z" fill="#f9f9f9"/><path d="M290,329.27l61.87-61.87H297a6.93,6.93,0,0,0-7,7Z" fill="#cdd6e0"/><circle cx="61.87" cy="44.68" r="16.24" fill="#fff"/><circle cx="144.61" cy="44.68" r="16.24" fill="#fff"/><circle cx="226.59" cy="44.68" r="16.24" fill="#fff"/><circle cx="309.33" cy="44.68" r="16.24" fill="#fff"/><path d="M61.87,53.19h0c-5.41,0-10.05-3.26-10.05-7.06V7.06C51,3.26,55.68,0,61.87,0h0c5.41,0,10.05,3.26,10.05,7.06V45.59C71.92,49.93,67.28,53.19,61.87,53.19Z" fill="#7ab9dd"/><path d="M144.61,53.19h0c-5.41,0-10.05-3.26-10.05-7.06V7.06c0-3.8,4.64-7.06,10.05-7.06h0c5.41,0,10.05,3.26,10.05,7.06V45.59C154.67,49.93,150,53.19,144.61,53.19Z" fill="#7ab9dd"/><path d="M226.59,53.19h0c-5.41,0-10.05-3.26-10.05-7.06V7.06c0-3.8,4.64-7.06,10.05-7.06h0c5.41,0,10.05,3.26,10.05,7.06V45.59C237.41,49.93,232.77,53.19,226.59,53.19Z" fill="#7ab9dd"/><path d="M309.33,53.19h0c-5.41,0-10.05-3.26-10.05-7.06V7.06c0-3.8,4.64-7.06,10.05-7.06h0c5.41,0,10.05,3.26,10.05,7.06V45.59C320.16,49.93,315.52,53.19,309.33,53.19Z" fill="#7ab9dd"/><rect x="121.41" y="126.65" width="48.72" height="44.08" fill="#cdd6e0"/><rect x="201.07" y="126.65" width="48.72" height="44.08" fill="#cdd6e0"/><rect x="279.95" y="126.65" width="48.72" height="44.08" fill="#cdd6e0"/><rect x="42.53" y="194.71" width="48.72" height="44.08" fill="#cdd6e0"/><rect x="121.41" y="194.71" width="48.72" height="44.08" fill="#ffd15c"/><rect x="201.07" y="194.71" width="48.72" height="44.08" fill="#cdd6e0"/><rect x="279.95" y="194.71" width="48.72" height="44.08" fill="#cdd6e0"/><rect x="42.53" y="261.99" width="48.72" height="44.08" fill="#cdd6e0"/><rect x="121.41" y="261.99" width="48.72" height="44.08" fill="#cdd6e0"/><rect x="201.07" y="261.99" width="48.72" height="44.08" fill="#cdd6e0"/><path d="M348.68,322.74c-116.51-49.69-88.24-202.18-88.24-202.18,53.11-2.57,88.24-27.41,88.24-27.41S383.8,118,436.92,120.57C436.92,120.57,466,273.05,348.68,322.74Z" fill="#ffd15c"/><path d="M348.68,306.46c-82.24-39.41-78.81-137.93-75.39-171.34a192.92,192.92,0,0,0,75.39-24c12.85,7.71,39.41,19.7,75.39,24C427.49,168.54,430.92,266.2,348.68,306.46Z" fill="#ff7058"/><polygon points="334.12 231.93 306.7 204.52 318.7 192.53 334.12 208.8 379.52 162.54 391.51 174.54 334.12 231.93" fill="#fff"/></g></g></svg>
