<svg xmlns="http://www.w3.org/2000/svg" viewBox="0 0 435.946 435.946" ><path d="M388.627 355.465l-91.448-321.35c-1.367-4.804-5.809-8.159-10.8-8.159-1.037 0-2.072.146-3.077.431l-5.96 1.696-5.368-18.864a12.682 12.682 0 0 0-6.844-8.029 12.684 12.684 0 0 0-10.552-.081S49.217 93.062 49.197 93.075a3.991 3.991 0 0 0-2.155 4.705l95.406 335.26a4.002 4.002 0 0 0 4.942 2.753l233.508-66.45c5.956-1.696 9.423-7.921 7.729-13.878zM257.848 8.41a4.63 4.63 0 0 1 3.901.03 4.627 4.627 0 0 1 2.529 2.969l5.368 18.864-166.4 47.354L257.848 8.41zm120.86 353.238l-229.66 65.354L69.99 149.191 55.832 99.437l229.66-65.354c1.705-.484 3.519.555 3.993 2.224l91.447 321.349a3.234 3.234 0 0 1-2.224 3.992z"/><path d="M218.863 148.085a82.136 82.136 0 0 0-22.482 3.15c-21.066 5.995-38.536 19.834-49.193 38.969-10.657 19.135-13.224 41.274-7.229 62.34 9.981 35.074 42.395 59.571 78.825 59.573h.004a82.158 82.158 0 0 0 22.478-3.151c21.066-5.995 38.536-19.834 49.193-38.969 10.656-19.135 13.224-41.273 7.229-62.339-9.98-35.076-42.395-59.573-78.825-59.573zm69.919 57.948l-27.747 7.896c-3.797-11.641-9.522-22.282-16.728-31.45a81.854 81.854 0 0 0 12.92-15.553c14.457 8.822 25.836 22.506 31.555 39.107zm-31.13 49.945a81.698 81.698 0 0 0-26.811 1.735l-7.075-24.859 31.756-9.037c2.594 10.779 3.267 21.686 2.13 32.161zm-77.655-51.746c2.705.273 5.423.417 8.148.417a82.09 82.09 0 0 0 18.66-2.169l7.077 24.869-31.756 9.037c-2.592-10.778-3.265-21.682-2.129-32.154zm32.311-11.643l-8.909-31.307c11.112 4.32 21.193 11.309 29.598 20.282a73.707 73.707 0 0 1-20.689 11.025zm25.902-4.931c6.482 8.307 11.652 17.933 15.122 28.463l-31.756 9.037-7.074-24.857a81.672 81.672 0 0 0 23.708-12.643zm-33.596 7.12a73.682 73.682 0 0 1-23.392 1.521c2.421-12.056 7.312-23.305 14.483-32.828l8.909 31.307zm11.458 40.265l7.074 24.859a81.71 81.71 0 0 0-23.709 12.642c-6.482-8.307-11.652-17.934-15.122-28.463l31.757-9.038zm9.269 32.572l8.909 31.308c-11.113-4.32-21.195-11.309-29.6-20.285a73.723 73.723 0 0 1 20.691-11.023zm7.695-2.19a73.739 73.739 0 0 1 23.393-1.522c-2.42 12.056-7.312 23.306-14.484 32.831l-8.909-31.309zm17.116-102.313a73.82 73.82 0 0 1-11.051 13.286c-7.765-8.36-16.864-15.184-26.874-20.002 2.208-.2 4.421-.312 6.636-.312 11.051.001 21.688 2.509 31.289 7.028zm-64.521.847c-5.976 9.368-10.119 19.963-12.32 31.163a73.731 73.731 0 0 1-16.416-5.492c7.203-11.054 17.071-19.848 28.736-25.671zm-32.758 32.621a81.805 81.805 0 0 0 19.216 6.454c-1.299 11.587-.564 23.646 2.336 35.542l-27.757 7.899c-3.862-16.92-1.689-34.397 6.205-49.895zm-4.007 57.588l27.747-7.896c3.797 11.641 9.521 22.282 16.727 31.45a81.798 81.798 0 0 0-12.92 15.551c-14.457-8.822-25.835-22.504-31.554-39.105zm69.921 49.949h-.003c-11.051-.001-21.689-2.509-31.289-7.029a73.76 73.76 0 0 1 11.05-13.284c7.764 8.359 16.861 15.184 26.87 20.002-2.205.2-4.416.311-6.628.311zm33.237-7.879c5.973-9.367 10.116-19.961 12.315-31.158a73.906 73.906 0 0 1 16.417 5.485c-7.201 11.055-17.069 19.849-28.732 25.673zm32.759-32.63a81.886 81.886 0 0 0-19.221-6.437c1.299-11.588.563-23.649-2.337-35.546l27.757-7.899c3.859 16.916 1.689 34.387-6.199 49.882z"/></svg>
