<svg xmlns="http://www.w3.org/2000/svg" viewBox="0 0 384.747 384.747" ><path d="M275.684 169.341c-4.237 0-8.222 1.65-11.219 4.646l-31.752 31.753-26.459.002 6.435-6.435a4.001 4.001 0 0 0-5.656-5.657l-12.093 12.093-51.544.004a3.997 3.997 0 0 0-2.828 1.171l-9.197 9.197a3.999 3.999 0 0 0 1.08 6.427l56.174 27.288-8.19 8.19-35.617-.006h-.001a3.999 3.999 0 0 0-2.828 1.171l-4.68 4.679a3.999 3.999 0 0 0 1.08 6.427l23.136 11.238a30.675 30.675 0 0 0-1.383 5.806 11.931 11.931 0 0 0 2.848 9.439 11.925 11.925 0 0 0 8.967 4.082h.002c.53 0 1.067-.036 1.599-.106a30.816 30.816 0 0 0 5.735-1.359l10.888 22.68a4.001 4.001 0 0 0 6.176 1.335l5.092-4.266a4 4 0 0 0 1.431-3.066l-.006-35.617 7.635-7.635 25.614 53.379a4.003 4.003 0 0 0 6.179 1.333l9.998-8.397a4 4 0 0 0 1.428-3.063l.004-51.003 12.362-12.363a4 4 0 1 0-5.656-5.657l-6.705 6.705.002-24.16 33.171-33.171a15.762 15.762 0 0 0 4.648-11.219c0-4.238-1.651-8.222-4.648-11.219a15.773 15.773 0 0 0-11.222-4.646zM141 217.8l4.054-4.054 79.659-.006-30.102 30.102L141 217.8zm6.895 48.214l24.541.004-3.478 3.478c-1.476 1.476-2.773 3.112-3.917 4.846l-17.146-8.328zm46.983 47.357l-8.391-17.48c1.758-1.153 3.416-2.464 4.909-3.957l3.478-3.478.004 24.915zm50.847.839l-4.622 3.882-24.6-51.266 29.228-29.229-.006 76.613zm35.522-123.442l-85.201 85.202-.005.005-10.302 10.302a23.158 23.158 0 0 1-13.24 6.543 3.925 3.925 0 0 1-3.49-1.316 3.883 3.883 0 0 1-.938-3.112 23.152 23.152 0 0 1 6.543-13.239l95.508-95.509a7.816 7.816 0 0 1 5.563-2.304c2.102 0 4.076.818 5.563 2.304 1.485 1.486 2.305 3.461 2.305 5.562s-.82 4.077-2.306 5.562z"/><path d="M334.74 72.061c3.526-24.712-1.233-44.415-13.859-57.041C310.637 4.777 296.131-.276 277.607.011c-17.02.262-36.57 5.048-58.114 14.209a189.048 189.048 0 0 0-20.524-1.127c-49.637 0-96.302 19.329-131.399 54.428-41.397 41.397-59.129 97.627-53.221 151.741C5.135 240.879.323 260.492.059 277.561c-.285 18.471 4.764 33.031 15.008 43.275 9.928 9.927 24.227 15.005 41.905 15.005 4.798 0 9.859-.396 15.135-1.149 34.533 32.321 79.331 50.055 126.862 50.055 49.637 0 96.302-19.33 131.399-54.427 70.961-70.962 72.411-185.502 4.372-258.259zm-19.516-51.384c9.754 9.754 13.952 24.897 12.319 44.088-25.874-24.825-57.699-41.324-92.21-48.134 35.815-12.656 64.5-11.344 79.891 4.046zM20.721 315.179c-15.422-15.423-16.706-44.193-3.967-80.11 6.636 33.718 22.656 65.934 48.055 92.422-19.195 1.635-34.337-2.562-44.088-12.312zm303.99 9.484c-33.587 33.587-78.244 52.085-125.743 52.085-43.455 0-84.526-15.491-116.924-43.846 19.281-4.231 40.979-12.989 63.301-25.596a4 4 0 0 0-3.933-6.966c-23.849 13.469-46.831 22.365-66.639 25.833-.515-.503-1.036-.999-1.547-1.51-69.335-69.335-69.335-182.151 0-251.486 33.587-33.587 78.244-52.084 125.743-52.084 47.499 0 92.156 18.497 125.743 52.084.511.511 1.007 1.033 1.511 1.55-3.729 21.292-13.657 46.063-28.827 71.815a4.001 4.001 0 0 0 3.442 6.031c1.37 0 2.705-.705 3.45-1.97 14.285-24.248 24.091-47.773 28.657-68.601 60.97 69.772 58.234 176.193-8.234 242.661z"/></svg>
