<svg xmlns="http://www.w3.org/2000/svg" viewBox="0 0 508 508"><title>worldwide</title><g id="c1376feb-9c62-45ee-8a92-1cedec292415" data-name="Слой 2"><g id="7cef6803-f8bc-42f4-a5f9-3ba0ac717025" data-name="Layer 1"><path d="M419.7,262.4c-.4-2.1-.8-4.3-1.2-6.4-17.3-84.4-85.8-150.3-172-164.5-6.3-1.1-12.7-1.8-19.1-2.3q-7.8-.6-15.9-.6a216.2,216.2,0,0,0-38.8,3.5c-.6.1-1.2.2-1.9.3A211.47,211.47,0,0,0,42,173c-2.4,3-4.5,6.2-6.7,9.4A207,207,0,0,0,0,298.3C0,414.1,94.6,508,211.4,508s211.4-93.9,211.4-209.7A202.27,202.27,0,0,0,419.7,262.4Z" fill="#84dbff"/><path d="M200,128.3c-.3,6.6-9.9,7.2-16.2,9.5-4.5,1.7-8,5.4-11.5,8.7a124.7,124.7,0,0,1-26.8,19.2c-10.1,5.4-24,8.8-31.5.2,24-9.7,42.2-31.2,50.4-55.4-11.5,6.3-20.3,16.3-30.3,24.8-11.4,9.5-24.4,16.8-35.4,26.7s-19.9,23.6-19.3,38.2c-.1-8.4-5.3-16.3-12.4-21s-15.9-6.4-24.3-6.3a1.7,1.7,0,0,0-.7.1A210.94,210.94,0,0,1,170.7,92.5c.6-.1,1.2-.2,1.9-.3a43.18,43.18,0,0,0,18.9,26.3C195.4,120.9,200.3,123.7,200,128.3Z" fill="#54c0eb"/><path d="M246.4,91.5c5.2,2.9,10.2,6.1,13.7,10.5,1,1.2,1.9,2.8,1.6,4.2-.7,3.8-6.4,3-9.9,4.6-5.9,2.7-4,12.1,1.3,15.8s12.3,4.2,18.1,7.2c2.3,1.1,4.5,3.2,4.1,5.7a6.59,6.59,0,0,1-2,3.4c-6.9,7.7-13.9,15.5-20.8,23.3-1.8,1.9-3.6,4-6.1,5.1-3.1,1.6-6.8,1.5-10.4,1.4-13.5-.4-30.4,2.5-34,15.4-.9,3.2-.9,6.9-3.1,9.3-2,2.3-5.6,2.9-7.3,5.5-2.6,4,1,9,1.7,13.7,1,7.5-7.8,14.4-14.9,11.6-.3-8.1-.5-16.3-.7-24.4-.1-1.4-.1-2.8-.9-3.8a6.78,6.78,0,0,0-4-2.3c-7.8-2.4-17.5-4-22.9,2s-2.7,15.5,1.6,22.4,10.2,13.5,10.4,21.5c.1,4-1.9,8.5-5.7,9.3-5.7,1.2-9.4-6.1-9.8-11.9a80.37,80.37,0,0,0-6.9,49.2c-11.9,3-23.7,6-35.6,8.9-4.3,1.1-9,2.4-11.8,5.9-2.7,3.3-3,7.9-2.9,12.1a91.52,91.52,0,0,0,10.7,41.6c2.4,4.3,5.2,8.7,9.1,11.6,11.1,8.3,27,4,40.4,7.7,11.4,3.2,20.6,12.2,26.3,22.5s8.6,22,11.3,33.5c1.3,5.3,2.6,10.9,6.4,14.8,4.5,4.5,11.2,5.7,17.4,6.7,10.7,1.7,22.3,3.3,31.7-2,8.1-4.5,13.2-13.4,21.9-16.7,5.9-2.2,12.4-1.4,18.5-2.8s12.4-6.6,11.1-12.7c-1.3-5.7-9-9.9-7.3-15.6,1.3-3.9,6-5,9.9-6.3,17.4-5.9,26.8-28.7,18.2-44.9-1.3-2.5-3.1-5.1-3.3-8-.6-8.8,11.8-11.8,17.8-18.4,5.5-5.9,5.6-14.8,6.4-22.8s4-17.2,11.8-19.4c7.6-2.3,15.2,3.6,19.9,9.9,4.5,6.4,8.1,14,14.8,18.2.2-13.9.3-27.8.6-41.7.1-5,.3-10.4,3.5-14.2,5.5-6.4,15.6-4.8,23.9-3a26,26,0,0,0,8.3.8C401.1,171.6,332.6,105.8,246.4,91.5ZM288,227.7l.8-.3c2.4.1,4.7.1,7,.2a16.41,16.41,0,0,0,3.6,14.4c1.5,1.7,3.4,3,4.9,4.8a15.55,15.55,0,0,1,2.8,15.6c-4.5.3-9.1.6-13.6-.5s-8.6-3.8-10.5-7.9c-1.1-2.6-1.2-5.4-1.3-8.2C281.4,239.1,282.1,231.1,288,227.7Zm-62.4,71.9c-6.9-1.2-12.8-5.5-19-8.8a63.47,63.47,0,0,0-29.2-7.3c-3.6-.1-7.2.2-10.7-.6s-6.8-3.2-7.8-6.6c-1.2-4.3,1.8-8.8,5.5-11.4s8.1-3.9,11.8-6.5l.7-6.6a81.13,81.13,0,0,0,28.9,18.6,64.18,64.18,0,0,0,16.1,3.9c5.8.6,11.6.1,17.3-.3,1.9-.2,3.8-.3,5.6-.5l11.7-.9c4.7-.3,9.6-.8,13.4-3.6,1.5,5.7-1.2,11.8-5.4,15.9s-9.7,6.6-15.1,9.1C242.1,297.4,233.9,300.9,225.6,299.6Zm81.6,41.1a5.3,5.3,0,0,1-2.1,3.3,5.55,5.55,0,0,1-2.8.7c-9,1.2-19,2.1-26.1-3.5-3.3-2.6-5.5-6.3-7.5-9.7-2.8-4.7-5.5-9.4-8.2-14s-5.6-10-4.4-15.3a39.45,39.45,0,0,1,12.8.7l1.2,1.3c-1.4,3.4.1,7.4,2.7,9.9s6.1,4,9.5,5.3c2.8,1.2,5.8,2.3,8.7,3.4,4.1,1.6,8.3,3.3,11.6,6.3C306,331.9,308.2,336.4,307.2,340.7Zm15.5-44.1a6.24,6.24,0,0,1-3,1.6c-8.4,2.8-18.6-3.9-19.4-12.7l1.3-1.1c6.2,0,12.4-.1,18.6-.1a3.4,3.4,0,0,1,4.3,3.9C324.8,291.2,324.9,294.5,322.7,296.6Z" fill="#54c0eb"/><path d="M389.4,0C323.9,0,270.8,52.7,270.8,117.7S389.4,345.6,389.4,345.6,508,182.7,508,117.7,454.9,0,389.4,0Z" fill="#ff7058"/><ellipse cx="389.4" cy="117.7" rx="53.6" ry="53.2" fill="#fff"/></g></g></svg>