<?xml version="1.0" standalone="no"?>
<!DOCTYPE svg PUBLIC "-//W3C//DTD SVG 20010904//EN"
 "http://www.w3.org/TR/2001/REC-SVG-20010904/DTD/svg10.dtd">
<svg version="1.0" xmlns="http://www.w3.org/2000/svg"
 width="16.000000pt" height="16.000000pt" viewBox="0 0 16.000000 16.000000"
 preserveAspectRatio="xMidYMid meet">
<metadata>
Created by potrace 1.11, written by Peter Selinger 2001-2013
</metadata>
<g transform="translate(0.000000,16.000000) scale(0.006154,-0.006154)"
fill="#000000" stroke="none">
<path d="M1030 2276 c-42 -22 -81 -44 -87 -49 -7 -5 15 -50 69 -135 44 -70 92
-149 106 -175 27 -49 74 -83 252 -180 30 -17 84 -48 119 -69 34 -21 64 -38 66
-38 1 0 65 -36 141 -81 77 -44 148 -82 159 -84 11 -2 79 -6 150 -9 72 -3 163
-9 203 -12 l72 -6 -5 48 c-3 27 -8 72 -11 99 -8 72 -13 85 -36 85 -31 0 -98
22 -98 32 0 36 -176 235 -270 305 -57 43 -229 133 -253 133 -8 0 -17 3 -21 7
-3 4 -12 8 -19 9 -7 2 -43 12 -82 24 -38 11 -83 23 -100 26 -16 2 -46 9 -65
14 -19 6 -46 10 -60 10 -14 0 -35 7 -45 15 -11 8 -37 28 -59 45 -21 16 -42 29
-45 29 -3 -1 -40 -20 -81 -43z m382 -167 c151 -35 274 -93 388 -184 145 -115
260 -288 215 -321 -25 -18 -135 -1 -190 29 -11 6 -25 12 -32 13 -41 7 -396
203 -423 234 -3 3 -25 18 -50 34 -63 41 -170 150 -170 174 0 54 91 61 262 21z"/>
<path d="M936 2030 c-27 -18 -59 -36 -70 -41 -22 -9 -58 -31 -66 -39 -3 -3
-18 -13 -35 -22 -16 -9 -31 -23 -33 -30 -1 -8 23 -59 55 -113 l58 -98 0 -424
c0 -283 -3 -423 -10 -423 -5 0 -4 -4 4 -9 15 -10 1 -36 -86 -165 -18 -26 -33
-51 -33 -55 0 -8 225 -156 253 -167 10 -3 17 -1 17 5 0 17 103 171 137 206 16
17 69 53 117 80 49 28 105 60 125 72 20 13 56 34 81 48 25 14 62 35 82 47 20
13 104 62 185 110 l148 86 123 -4 122 -5 1 38 c0 21 2 91 4 156 1 64 2 117 1
118 0 0 -59 3 -131 6 l-130 4 -75 42 c-41 23 -79 44 -85 46 -5 2 -62 33 -125
69 -63 36 -153 85 -200 110 -47 25 -98 54 -115 63 -16 10 -49 27 -71 38 -36
18 -51 37 -107 133 -96 166 -83 155 -141 118z m268 -344 c34 -18 88 -48 121
-66 33 -18 74 -40 90 -50 17 -9 57 -32 90 -50 33 -18 80 -44 105 -58 25 -14
68 -37 95 -51 l50 -26 -2 -95 c-3 -190 0 -175 -35 -193 -18 -9 -40 -21 -48
-27 -36 -24 -353 -210 -357 -210 -3 0 -17 -9 -32 -19 -15 -11 -52 -33 -84 -51
l-57 -31 -65 46 c-36 25 -67 45 -70 45 -3 0 -23 12 -45 26 l-40 27 2 350 3
351 100 58 c55 32 104 58 109 58 5 0 37 -15 70 -34z"/>
<path d="M1107 1332 c2 -103 3 -224 3 -270 l0 -83 28 20 c15 10 120 72 234
137 114 66 208 121 208 124 0 3 -17 13 -38 22 -20 9 -73 37 -117 61 -147 81
-170 94 -245 135 l-75 41 2 -187z"/>
<path d="M560 1997 c-25 -18 -61 -45 -81 -60 l-37 -28 14 -54 15 -55 -42 -87
c-55 -118 -56 -120 -72 -183 -45 -166 -45 -357 -2 -520 1 -3 5 -23 9 -45 5
-22 22 -83 39 -135 17 -52 31 -97 30 -100 -1 -3 -4 -35 -8 -72 l-6 -67 63 -42
c35 -23 65 -46 68 -49 3 -4 15 -10 26 -14 16 -5 24 -2 28 11 10 25 154 282
177 315 17 25 19 59 24 431 l6 403 -93 192 c-51 105 -97 191 -103 191 -5 0
-30 -15 -55 -32z m86 -242 c71 -109 80 -625 15 -888 -22 -89 -69 -113 -107
-54 -70 106 -115 278 -118 457 -2 92 16 229 37 280 5 14 11 31 13 38 6 31 64
140 87 165 32 34 52 34 73 2z"/>
<path d="M2238 1054 c-2 -1 -92 -5 -199 -7 -177 -3 -198 -5 -225 -24 -16 -11
-72 -44 -124 -73 -107 -60 -91 -50 -343 -195 l-188 -108 -107 -161 c-59 -89
-108 -167 -110 -173 -2 -7 -8 -13 -14 -13 -6 0 -6 -6 2 -15 7 -8 16 -12 21
-10 4 3 90 6 191 6 321 1 495 53 694 210 34 27 64 45 68 41 4 -4 7 -2 5 3 -1
6 46 59 104 119 59 60 107 113 107 118 0 9 101 58 119 58 19 0 29 35 34 127 4
82 3 92 -14 96 -10 3 -19 3 -21 1z m-221 -88 c40 -13 16 -74 -69 -178 -129
-157 -306 -276 -483 -324 -149 -40 -279 -40 -307 0 -21 30 86 136 240 239 171
114 370 215 502 253 77 22 81 23 117 10z"/>
</g>
</svg>
